<?xml version="1.0" encoding="UTF-8"?>
<svg width="32px" height="44px" viewBox="0 0 32 44" version="1.1" xmlns="http://www.w3.org/2000/svg" xmlns:xlink="http://www.w3.org/1999/xlink">
    <!-- Generator: Sketch 55 (78076) - https://sketchapp.com -->
    <title>agreement</title>
    <desc>Created with Sketch.</desc>
    <defs>
        <linearGradient x1="50%" y1="0%" x2="50%" y2="100%" id="linearGradient-1">
            <stop stop-color="#9DD9CD" offset="0%"></stop>
            <stop stop-color="#68A297" offset="100%"></stop>
        </linearGradient>
        <linearGradient x1="50%" y1="0%" x2="50%" y2="100%" id="linearGradient-2">
            <stop stop-color="#9DD9CD" offset="0%"></stop>
            <stop stop-color="#68A297" offset="100%"></stop>
        </linearGradient>
        <linearGradient x1="50%" y1="0%" x2="50%" y2="100%" id="linearGradient-3">
            <stop stop-color="#9DD9CD" offset="0%"></stop>
            <stop stop-color="#68A297" offset="100%"></stop>
        </linearGradient>
        <linearGradient x1="50%" y1="0%" x2="50%" y2="100%" id="linearGradient-4">
            <stop stop-color="#9DD9CD" offset="0%"></stop>
            <stop stop-color="#68A297" offset="100%"></stop>
        </linearGradient>
        <linearGradient x1="50%" y1="0%" x2="50%" y2="100%" id="linearGradient-5">
            <stop stop-color="#9DD9CD" offset="0%"></stop>
            <stop stop-color="#68A297" offset="100%"></stop>
        </linearGradient>
        <linearGradient x1="50%" y1="0%" x2="50%" y2="100%" id="linearGradient-6">
            <stop stop-color="#9DD9CD" offset="0%"></stop>
            <stop stop-color="#68A297" offset="100%"></stop>
        </linearGradient>
        <linearGradient x1="50%" y1="0%" x2="50%" y2="100%" id="linearGradient-7">
            <stop stop-color="#9DD9CD" offset="0%"></stop>
            <stop stop-color="#68A297" offset="100%"></stop>
        </linearGradient>
        <linearGradient x1="50%" y1="0%" x2="50%" y2="100%" id="linearGradient-8">
            <stop stop-color="#9DD9CD" offset="0%"></stop>
            <stop stop-color="#68A297" offset="100%"></stop>
        </linearGradient>
        <linearGradient x1="50%" y1="0%" x2="50%" y2="100%" id="linearGradient-9">
            <stop stop-color="#9DD9CD" offset="0%"></stop>
            <stop stop-color="#68A297" offset="100%"></stop>
        </linearGradient>
    </defs>
    <g id="Page-1" stroke="none" stroke-width="1" fill="none" fill-rule="evenodd">
        <g id="home-(marge-230px)" transform="translate(-366.000000, -567.000000)" fill-rule="nonzero">
            <g id="part2" transform="translate(212.000000, 567.000000)">
                <g id="unique" transform="translate(-0.000000, 0.000000)">
                    <g id="agreement" transform="translate(154.000000, 0.000000)">
                        <path d="M31.1201137,0 L0.879800085,0 C0.393964799,0 0,0.392390625 0,0.876476562 L0,43.1235234 C0,43.6076094 0.393964799,44 0.879800085,44 L23.8743358,44 C24.1076782,44 24.3313592,43.9076172 24.4964672,43.7433047 L31.7423313,36.5247266 C31.9072669,36.3604141 32,36.1374922 32,35.9049453 L32,0.876476562 C32,0.392390625 31.6060352,0 31.1201137,0 Z M24.7524969,41.0090313 L24.7487013,36.7760078 L28.997776,36.779875 L24.7524969,41.0090313 Z M30.2403998,35.0280391 L23.868815,35.0222813 C23.8685562,35.0222813 23.8682974,35.0222813 23.8680386,35.0222813 C23.6346962,35.0222813 23.410929,35.1146641 23.2459072,35.2789766 C23.0807991,35.4435469 22.988066,35.6668125 22.9882385,35.8995313 L22.9939319,42.2470469 L1.75960017,42.2470469 L1.75960017,1.75295313 L30.2403998,1.75295313 L30.2403998,35.0280391 Z" id="Shape" fill="url(#linearGradient-1)"></path>
                        <path d="M8.999957,32 C6.79440378,32 5,33.6821729 5,35.7499597 C5,37.8178271 6.79448977,39.5 8.999957,39.5 C11.2055962,39.5 13,37.8178271 13,35.7499597 C13.000172,33.6822535 11.2056822,32 8.999957,32 Z M8.999957,37.8555581 C7.76160685,37.8555581 6.7541574,36.9109936 6.7541574,35.7500403 C6.7541574,34.589087 7.76160685,33.6446032 8.999957,33.6446032 C10.2383072,33.6446032 11.2458426,34.589087 11.2458426,35.7500403 C11.2458426,36.9109936 10.2384792,37.8555581 8.999957,37.8555581 Z" id="Shape" fill="url(#linearGradient-2)"></path>
                        <path d="M20.1333503,34.5 L15.3666497,34.5 C14.8880762,34.5 14.5,34.947691 14.5,35.5 C14.5,36.052309 14.8880762,36.5 15.3666497,36.5 L20.1333503,36.5 C20.6119238,36.5 21,36.052309 21,35.5 C21,34.947691 20.6119238,34.5 20.1333503,34.5 Z" id="Path" fill="url(#linearGradient-3)"></path>
                        <path d="M8.58164919,5 L5.91835081,5 C5.41122739,5 5,5.44769095 5,6 C5,6.55230905 5.41122739,7 5.91835081,7 L8.58164919,7 C9.08877261,7 9.5,6.55230905 9.5,6 C9.5,5.44769095 9.08877261,5 8.58164919,5 Z" id="Path" fill="url(#linearGradient-4)"></path>
                        <path d="M26.6121634,5 L18.8878366,5 C18.3975635,5 18,5.44769095 18,6 C18,6.55230905 18.3975635,7 18.8878366,7 L26.6121634,7 C27.1024365,7 27.5,6.55230905 27.5,6 C27.5,5.44769095 27.1024365,5 26.6121634,5 Z" id="Path" fill="url(#linearGradient-5)"></path>
                        <path d="M26.1071574,9 L12.8928426,9 C12.3998051,9 12,9.44769095 12,10 C12,10.552309 12.3998051,11 12.8928426,11 L26.1071574,11 C26.6001949,11 27,10.552309 27,10 C27,9.44769095 26.6001949,9 26.1071574,9 Z" id="Path" fill="url(#linearGradient-6)"></path>
                        <path d="M26.1305345,16 L5.86955073,16 C5.38937525,16 5,16.447691 5,17 C5,17.552309 5.38937525,18 5.86955073,18 L26.1304493,18 C26.6106248,18 27,17.552309 27,17 C27,16.447691 26.61071,16 26.1305345,16 Z" id="Path" fill="url(#linearGradient-7)"></path>
                        <path d="M26.1305345,19 L5.86955073,19 C5.38937525,19 5,19.447691 5,20 C5,20.552309 5.38937525,21 5.86955073,21 L26.1304493,21 C26.6106247,21 27,20.552309 27,20 C27.0000852,19.447691 26.61071,19 26.1305345,19 Z" id="Path" fill="url(#linearGradient-7)"></path>
                        <path d="M26.1305345,22 L5.86955073,22 C5.38937525,22 5,22.447691 5,23 C5,23.552309 5.38937525,24 5.86955073,24 L26.1304493,24 C26.6106247,24 27,23.552309 27,23 C27.0000852,22.447691 26.61071,22 26.1305345,22 Z" id="Path" fill="url(#linearGradient-7)"></path>
                        <path d="M26.5196286,25 L25.9803714,25 C25.4389995,25 25,25.447691 25,26 C25,26.552309 25.4389995,27 25.9803714,27 L26.5196286,27 C27.0610005,27 27.5,26.552309 27.5,26 C27.5,25.447691 27.0610005,25 26.5196286,25 Z" id="Path" fill="url(#linearGradient-8)"></path>
                        <path d="M22.6294288,25 L5.87057116,25 C5.38983219,25 5,25.447691 5,26 C5,26.552309 5.38983219,27 5.87057116,27 L22.6294288,27 C23.1101678,27 23.5,26.552309 23.5,26 C23.5,25.447691 23.1101678,25 22.6294288,25 Z" id="Path" fill="url(#linearGradient-9)"></path>
                    </g>
                </g>
            </g>
        </g>
    </g>
</svg>