<?xml version="1.0" encoding="UTF-8"?>
<svg width="50px" height="48px" viewBox="0 0 50 48" version="1.1" xmlns="http://www.w3.org/2000/svg" xmlns:xlink="http://www.w3.org/1999/xlink">
    <!-- Generator: Sketch 55 (78076) - https://sketchapp.com -->
    <title>noun_decrease_1236052</title>
    <desc>Created with Sketch.</desc>
    <defs>
        <linearGradient x1="50%" y1="0%" x2="50%" y2="100%" id="linearGradient-1">
            <stop stop-color="#9DD9CD" offset="0%"></stop>
            <stop stop-color="#68A297" offset="100%"></stop>
        </linearGradient>
        <linearGradient x1="50%" y1="0%" x2="50%" y2="100%" id="linearGradient-2">
            <stop stop-color="#9DD9CD" offset="0%"></stop>
            <stop stop-color="#68A297" offset="100%"></stop>
        </linearGradient>
        <linearGradient x1="50%" y1="0%" x2="50%" y2="100%" id="linearGradient-3">
            <stop stop-color="#9DD9CD" offset="0%"></stop>
            <stop stop-color="#68A297" offset="100%"></stop>
        </linearGradient>
        <linearGradient x1="50%" y1="0%" x2="50%" y2="100%" id="linearGradient-4">
            <stop stop-color="#9DD9CD" offset="0%"></stop>
            <stop stop-color="#68A297" offset="100%"></stop>
        </linearGradient>
        <linearGradient x1="50%" y1="0%" x2="50%" y2="100%" id="linearGradient-5">
            <stop stop-color="#9DD9CD" offset="0%"></stop>
            <stop stop-color="#68A297" offset="100%"></stop>
        </linearGradient>
        <linearGradient x1="50%" y1="0%" x2="50%" y2="100%" id="linearGradient-6">
            <stop stop-color="#9DD9CD" offset="0%"></stop>
            <stop stop-color="#68A297" offset="100%"></stop>
        </linearGradient>
    </defs>
    <g id="Page-1" stroke="none" stroke-width="1" fill="none" fill-rule="evenodd">
        <g id="home-(marge-230px)" transform="translate(-966.000000, -567.000000)" fill-rule="nonzero">
            <g id="part2" transform="translate(212.000000, 567.000000)">
                <g id="Group-4" transform="translate(634.000000, 0.000000)">
                    <g id="noun_decrease_1236052" transform="translate(120.000000, 0.000000)">
                        <path d="M46,46.8595127 L46,38.1404873 C46,37.5106136 45.7761424,37 45.5,37 C45.2238576,37 45,37.5106136 45,38.1404873 L45,46.8595127 C45,47.4893864 45.2238576,48 45.5,48 C45.7761424,48 46,47.4893864 46,46.8595127 Z" id="Path" fill="url(#linearGradient-1)"></path>
                        <path d="M37,46.85918 L37,33.14082 C37,32.5107625 36.7761424,32 36.5,32 C36.2238576,32 36,32.5107625 36,33.14082 L36,46.85918 C36,47.4892375 36.2238576,48 36.5,48 C36.7761424,48 37,47.4892375 37,46.85918 Z" id="Path" fill="url(#linearGradient-2)"></path>
                        <path d="M29,46.8202247 L29,28.1797753 C29,27.5282034 28.7761424,27 28.5,27 C28.2238576,27 28,27.5282034 28,28.1797753 L28,46.8202247 C28,47.4717966 28.2238576,48 28.5,48 C28.7761424,48 29,47.4717966 29,46.8202247 Z" id="Path" fill="url(#linearGradient-3)"></path>
                        <path d="M20,46.9097104 L20,33.0902896 C20,32.4881393 19.7761424,32 19.5,32 C19.2238576,32 19,32.4881393 19,33.0902896 L19,46.9097104 C19,47.5118607 19.2238576,48 19.5,48 C19.7761424,48 20,47.5118607 20,46.9097104 Z" id="Path" fill="url(#linearGradient-2)"></path>
                        <path d="M11,46.8473951 L11,24.1526049 C11,23.5160388 10.7761424,23 10.5,23 C10.2238576,23 10,23.5160388 10,24.1526049 L10,46.8473951 C10,47.4839612 10.2238576,48 10.5,48 C10.7761424,48 11,47.4839612 11,46.8473951 Z" id="Path" fill="url(#linearGradient-4)"></path>
                        <path d="M1,46.8005483 L1,14.1994517 C1,13.5370128 0.776142375,13 0.5,13 C0.223857625,13 0,13.5370128 0,14.1994517 L0,46.8005483 C0,47.4629872 0.223857625,48 0.5,48 C0.776142375,48 1,47.4629872 1,46.8005483 Z" id="Path" fill="url(#linearGradient-5)"></path>
                        <path d="M48.805781,10.2336172 C48.146232,10.2336172 47.6115619,10.7455291 47.6115619,11.3770045 L47.6115619,20.1124833 L36.9770414,9.86201631 C36.7548043,9.63253268 36.4440366,9.50029275 36.1172037,9.49613239 L36.1172037,9.49613239 C35.8009883,9.49740886 35.4982103,9.61871048 35.2752793,9.83343163 L30.8745821,14.0696815 L20.0251022,4.27085253 C19.5614746,3.83878139 18.8227942,3.83878139 18.3591666,4.27085253 L13.2598514,9.14739927 L1.95656819,0.26328012 C1.62720337,0.00176778264 1.17687746,-0.0710473947 0.776081074,0.0724019632 C0.375284683,0.215851321 0.0852757353,0.55364034 0.0158498207,0.957884189 C-0.053576094,1.36212804 0.108192118,1.77104188 0.439910013,2.02981346 L12.5851176,11.599965 C13.0603354,11.9757549 13.7561871,11.9435578 14.1913422,11.5256448 L19.2309465,6.70055049 L30.0744554,16.5108133 C30.538083,16.9428845 31.2767634,16.9428845 31.7403909,16.5108133 L36.1172037,12.2859973 L45.9097998,21.7132254 L36.8158218,21.7132254 C36.1562729,21.7132254 35.6216028,22.2251374 35.6216028,22.8566127 C35.6216028,23.4880881 36.1562729,24 36.8158218,24 L48.805781,24 C49.4653299,24 50,23.4880881 50,22.8566127 L50,11.3770045 C50,10.7455291 49.4653299,10.2336172 48.805781,10.2336172 Z" id="Path" fill="url(#linearGradient-6)"></path>
                    </g>
                </g>
            </g>
        </g>
    </g>
</svg>