<?xml version="1.0" encoding="UTF-8"?>
<svg width="20px" height="16px" viewBox="0 0 20 16" version="1.1" xmlns="http://www.w3.org/2000/svg" xmlns:xlink="http://www.w3.org/1999/xlink">
    <!-- Generator: Sketch 55 (78076) - https://sketchapp.com -->
    <title>🎨 Icon Сolor</title>
    <desc>Created with Sketch.</desc>
    <defs>
        <path d="M27,26 L13,26 C12.449,26 12,25.552 12,25 L12,15.25 L19.4,20.8 C19.578,20.934 19.789,21 20,21 C20.211,21 20.422,20.934 20.6,20.8 L28,15.25 L28,25 C28,25.552 27.551,26 27,26 L27,26 Z M26.333,14 L20,18.75 L13.667,14 L26.333,14 Z M27,12 L13,12 C11.346,12 10,13.346 10,15 L10,25 C10,26.654 11.346,28 13,28 L27,28 C28.654,28 30,26.654 30,25 L30,15 C30,13.346 28.654,12 27,12 L27,12 Z" id="path-1"></path>
    </defs>
    <g id="Page-1" stroke="none" stroke-width="1" fill="none" fill-rule="evenodd">
        <g id="Artboard" transform="translate(-10.000000, -12.000000)">
            <mask id="mask-2" fill="white">
                <use xlink:href="#path-1"></use>
            </mask>
            <use id="🎨-Icon-Сolor" fill="#FFFFFF" fill-rule="nonzero" xlink:href="#path-1"></use>
        </g>
    </g>
</svg>