<?xml version="1.0" encoding="UTF-8"?>
<svg width="24px" height="24px" viewBox="0 0 24 24" version="1.1" xmlns="http://www.w3.org/2000/svg" xmlns:xlink="http://www.w3.org/1999/xlink">
    <!-- Generator: Sketch 55 (78076) - https://sketchapp.com -->
    <title>facebook</title>
    <desc>Created with Sketch.</desc>
    <defs>
        <path d="M10,20 L12,20 L12,13.8 C12,13.247 12.447,12.8 13,12.8 L15.24,12.8 L15.685,11.2 L13,11.2 C12.447,11.2 12,10.753 12,10.2 L12,7.5 C12,6.452 12.897,5.6 14,5.6 L16,5.6 L16,4 L14,4 C11.794,4 10,5.57 10,7.5 L10,10.2 C10,10.753 9.553,11.2 9,11.2 L7,11.2 L7,12.8 L9,12.8 C9.553,12.8 10,13.247 10,13.8 L10,20 Z M13,22 L9,22 C8.447,22 8,21.553 8,21 L8,14.8 L6,14.8 C5.447,14.8 5,14.353 5,13.8 L5,10.2 C5,9.647 5.447,9.2 6,9.2 L8,9.2 L8,7.5 C8,4.468 10.691,2 14,2 L17,2 C17.553,2 18,2.447 18,3 L18,6.6 C18,7.152 17.553,7.6 17,7.6 L14,7.6 L14,9.2 L17,9.2 C17.312,9.2 17.607,9.347 17.796,9.595 C17.985,9.844 18.047,10.167 17.964,10.468 L16.964,14.067 C16.844,14.5 16.449,14.8 16,14.8 L14,14.8 L14,21 C14,21.553 13.553,22 13,22 L13,22 Z" id="path-1"></path>
    </defs>
    <g id="facebook" stroke="none" stroke-width="1" fill="none" fill-rule="evenodd">
        <mask id="mask-2" fill="white">
            <use xlink:href="#path-1"></use>
        </mask>
        <use id="🎨-Icon-Сolor" fill="#000000" fill-rule="nonzero" xlink:href="#path-1"></use>
    </g>
</svg>