<?xml version="1.0" encoding="UTF-8"?>
<svg width="24px" height="24px" viewBox="0 0 24 24" version="1.1" xmlns="http://www.w3.org/2000/svg" xmlns:xlink="http://www.w3.org/1999/xlink">
    <!-- Generator: Sketch 55 (78076) - https://sketchapp.com -->
    <title>google</title>
    <desc>Created with Sketch.</desc>
    <defs>
        <path d="M12.0031295,4 C9.82112948,4 7.78312948,4.861 6.26312948,6.426 C4.74312948,7.989 3.94112948,10.052 4.00412948,12.235 C4.12112948,16.339 7.55312948,19.818 11.6531295,19.992 C16.0351295,20.165 19.7721295,16.78 19.9951295,12.419 C20.0021295,12.291 20.0011295,11.726 19.9991295,11.2 L12.9971295,11.2 L12.9971295,12.782 L18.3061295,12.782 L17.9011295,14.08 C17.1801295,16.394 15.3521295,17.982 13.0111295,18.328 C11.2651295,18.581 9.44612948,18.082 8.02312948,16.945 C6.62612948,15.832 5.75012948,14.214 5.61812948,12.505 C5.48012948,10.698 6.07712948,8.976 7.30312948,7.653 C8.96912948,5.853 11.6621295,5.16 13.9701295,5.909 L14.7431295,4.48 C13.8681295,4.161 12.9491295,4 12.0031295,4 M11.9961295,21.999 C11.8551295,21.999 11.7121295,21.996 11.5691295,21.99 C6.44112948,21.773 2.15112948,17.423 2.00412948,12.292 C1.92712948,9.564 2.92912948,6.986 4.82812948,5.032 C6.72912948,3.077 9.27612948,2 12.0031295,2 C13.4371295,2 14.8231295,2.298 16.1221295,2.885 C16.4831295,3.048 16.7641295,3.358 16.8911295,3.736 C17.0201295,4.119 16.9841295,4.543 16.7921295,4.898 L15.5001295,7.282 C15.1491295,7.934 14.3571295,8.214 13.6651295,7.925 C12.0121295,7.252 9.99212948,7.692 8.77012948,9.012 C7.92812948,9.921 7.51712948,11.107 7.61212948,12.351 C7.70212948,13.509 8.30612948,14.613 9.27012948,15.382 C10.2641295,16.175 11.5261295,16.528 12.7181295,16.35 C13.8181295,16.187 14.7301295,15.635 15.3501295,14.782 L12.4471295,14.782 C11.6481295,14.782 10.9971295,14.132 10.9971295,13.332 L10.9971295,10.65 C10.9971295,9.851 11.6481295,9.2 12.4471295,9.2 L20.5471295,9.2 C21.3401295,9.2 21.9911295,9.845 21.9971295,10.638 C22.0001295,11.269 22.0021295,12.336 21.9931295,12.52 C21.7201295,17.832 17.2771295,21.999 11.9961295,21.999" id="path-1"></path>
    </defs>
    <g id="google" stroke="none" stroke-width="1" fill="none" fill-rule="evenodd">
        <mask id="mask-2" fill="white">
            <use xlink:href="#path-1"></use>
        </mask>
        <use id="🎨-Icon-Сolor" fill="#000000" fill-rule="nonzero" xlink:href="#path-1"></use>
    </g>
</svg>