<?xml version="1.0" encoding="utf-8"?>
<!-- Generator: Adobe Illustrator 23.0.2, SVG Export Plug-In . SVG Version: 6.00 Build 0)  -->
<svg version="1.1" id="Calque_1" xmlns="http://www.w3.org/2000/svg" xmlns:xlink="http://www.w3.org/1999/xlink" x="0px" y="0px"
	 viewBox="0 0 100 125" style="enable-background:new 0 0 100 125;" xml:space="preserve">
<title>help and info</title>
<path d="M50,7c23.7,0,43,19.3,43,43S73.7,93,50,93S7,73.7,7,50S26.3,7,50,7 M50,0C22.4,0,0,22.4,0,50s22.4,50,50,50s50-22.4,50-50
	S77.6,0,50,0L50,0z"/>
<path d="M55.8,57.3c0,4-0.1,8,0,12c0,3.1-2.5,5.7-5.6,5.7c-0.4,0-0.8,0-1.2-0.1c-0.5-0.1-1-0.2-1.5-0.4c-1.9-0.6-3.1-2.4-3.2-4.3
	c0-0.3,0-0.7,0-1c0-7.9,0-15.9,0-23.8c-0.1-2.4,1.4-4.6,3.7-5.4c2.4-0.9,5.2-0.1,6.8,1.9c0.7,0.9,1,2,1,3.1
	C55.8,49,55.8,53.2,55.8,57.3C55.8,57.3,55.8,57.3,55.8,57.3z"/>
<path d="M56.1,31.2c0,3.4-2.8,6.1-6.2,6.1c-3.4,0-6.1-2.8-6.1-6.2c0-3.4,2.8-6.1,6.2-6.1c0,0,0.1,0,0.1,0
	C53.5,25.1,56.2,27.8,56.1,31.2z"/>
</svg>
