<?xml version="1.0" encoding="UTF-8"?>
<svg width="20px" height="20px" viewBox="0 0 20 20" version="1.1" xmlns="http://www.w3.org/2000/svg" xmlns:xlink="http://www.w3.org/1999/xlink">
    <!-- Generator: Sketch 55 (78076) - https://sketchapp.com -->
    <title>🎨 Icon Сolor</title>
    <desc>Created with Sketch.</desc>
    <g id="Page-1" stroke="none" stroke-width="1" fill="none" fill-rule="evenodd">
        <g id="Artboard" transform="translate(-10.000000, -10.000000)" fill="#FFFFFF" fill-rule="nonzero">
            <path d="M28,25.4 C28,25.289 27.993,25.179 27.979,25.072 L23.358,24.011 C23.267,24.187 23.167,24.379 23.073,24.556 C22.618,25.426 22.292,26.058 21.446,25.719 C18.14,24.559 15.441,21.86 14.266,18.513 C13.909,17.729 14.589,17.373 15.451,16.922 C15.626,16.831 15.815,16.732 15.988,16.641 L14.928,12.021 C14.817,12.006 14.709,12 14.6,12 C13.167,12 12,13.166 12,14.599 C12,21.988 18.011,28 25.4,28 C26.834,28 28,26.834 28,25.4 M29.936,24.638 C29.978,24.886 30,25.141 30,25.4 C30,27.936 27.937,30 25.4,30 C16.909,30 10,23.091 10,14.599 C10,12.063 12.063,10 14.6,10 C14.86,10 15.117,10.022 15.366,10.065 C15.609,10.104 15.854,10.166 16.091,10.248 C16.417,10.361 16.661,10.633 16.738,10.969 L18.107,16.933 C18.183,17.261 18.088,17.606 17.854,17.849 C17.718,17.992 17.715,17.995 16.475,18.643 C17.479,20.818 19.224,22.556 21.354,23.527 C22.005,22.286 22.008,22.282 22.15,22.145 C22.394,21.912 22.737,21.819 23.066,21.892 L29.03,23.261 C29.366,23.338 29.639,23.583 29.751,23.908 C29.833,24.143 29.896,24.388 29.936,24.638 M21,12 C24.859,12 28,15.14 28,19 C28,19.552 28.447,20 29,20 C29.553,20 30,19.552 30,19 C30,14.037 25.963,10 21,10 C20.448,10 20,10.447 20,11 C20,11.552 20.448,12 21,12 M20,15 C20,14.447 20.448,14 21,14 C23.757,14 26,16.243 26,19 C26,19.552 25.553,20 25,20 C24.447,20 24,19.552 24,19 C24,17.345 22.654,16 21,16 C20.448,16 20,15.552 20,15" id="🎨-Icon-Сolor"></path>
        </g>
    </g>
</svg>